<mxfile host="65bd71144e">
    <diagram id="E2TP2AmZqmfv6rPX08LN" name="Page-1">
        <mxGraphModel dx="711" dy="626" grid="1" gridSize="10" guides="1" tooltips="1" connect="1" arrows="1" fold="1" page="1" pageScale="1" pageWidth="690" pageHeight="980" math="0" shadow="0">
            <root>
                <mxCell id="0"/>
                <mxCell id="1" parent="0"/>
                <mxCell id="2" value="" style="rounded=1;whiteSpace=wrap;html=1;fillColor=#FFFFFF;fontColor=#0066ff;strokeColor=#0066ff;strokeWidth=2;arcSize=9;" parent="1" vertex="1">
                    <mxGeometry x="80" y="260" width="480" height="140" as="geometry"/>
                </mxCell>
                <mxCell id="4" value="" style="rounded=1;whiteSpace=wrap;html=1;dashed=1;fillColor=none;fontColor=#0066ff;strokeColor=#0066ff;strokeWidth=2;" parent="1" vertex="1">
                    <mxGeometry x="90" y="330" width="460" height="60" as="geometry"/>
                </mxCell>
                <mxCell id="5" value="Namespace" style="text;html=1;strokeColor=none;fillColor=none;align=left;verticalAlign=middle;whiteSpace=wrap;rounded=0;fontColor=#0066ff;strokeWidth=2;" parent="1" vertex="1">
                    <mxGeometry x="100" y="330" width="90" height="20" as="geometry"/>
                </mxCell>
                <mxCell id="6" value="Deckhouse Virtualization" style="text;html=1;strokeColor=none;fillColor=none;align=left;verticalAlign=middle;whiteSpace=wrap;rounded=0;fontColor=#0066ff;strokeWidth=2;" parent="1" vertex="1">
                    <mxGeometry x="90" y="260" width="140" height="20" as="geometry"/>
                </mxCell>
                <mxCell id="12" style="edgeStyle=orthogonalEdgeStyle;html=1;exitX=0.5;exitY=1;exitDx=0;exitDy=0;entryX=0.5;entryY=0;entryDx=0;entryDy=0;entryPerimeter=0;fillColor=#f5f5f5;strokeColor=#0066ff;strokeWidth=2;fontColor=#0066ff;" parent="1" source="17" target="11" edge="1">
                    <mxGeometry relative="1" as="geometry">
                        <Array as="points">
                            <mxPoint x="390" y="420"/>
                            <mxPoint x="320" y="420"/>
                        </Array>
                    </mxGeometry>
                </mxCell>
                <mxCell id="14" style="edgeStyle=orthogonalEdgeStyle;html=1;exitX=0.5;exitY=0;exitDx=0;exitDy=0;entryX=1;entryY=0.75;entryDx=0;entryDy=0;fillColor=#f5f5f5;strokeColor=#0066ff;strokeWidth=2;fontColor=#0066ff;" parent="1" source="8" target="13" edge="1">
                    <mxGeometry relative="1" as="geometry"/>
                </mxCell>
                <mxCell id="8" value="VirtualImage" style="rounded=1;whiteSpace=wrap;html=1;fillColor=none;fontColor=#0066ff;strokeColor=#0066ff;strokeWidth=2;" parent="1" vertex="1">
                    <mxGeometry x="200" y="340" width="120" height="40" as="geometry"/>
                </mxCell>
                <mxCell id="16" style="edgeStyle=orthogonalEdgeStyle;html=1;exitX=0;exitY=0.5;exitDx=0;exitDy=0;entryX=1;entryY=0.5;entryDx=0;entryDy=0;fillColor=#f5f5f5;strokeColor=#0066ff;strokeWidth=2;fontColor=#0066ff;" parent="1" source="9" target="13" edge="1">
                    <mxGeometry relative="1" as="geometry">
                        <Array as="points">
                            <mxPoint x="340" y="300"/>
                            <mxPoint x="340" y="300"/>
                        </Array>
                    </mxGeometry>
                </mxCell>
                <mxCell id="9" value="ClusterVirtualImage" style="rounded=1;whiteSpace=wrap;html=1;fillColor=none;fontColor=#0066ff;strokeColor=#0066ff;strokeWidth=2;" parent="1" vertex="1">
                    <mxGeometry x="380" y="280" width="170" height="40" as="geometry"/>
                </mxCell>
                <mxCell id="11" value="storage" style="shape=cylinder3;whiteSpace=wrap;html=1;boundedLbl=1;backgroundOutline=1;size=15;fillColor=#FFFFFF;fontColor=#0066ff;strokeColor=#0066ff;strokeWidth=2;" parent="1" vertex="1">
                    <mxGeometry x="240" y="440" width="160" height="50" as="geometry"/>
                </mxCell>
                <mxCell id="13" value="DVCR" style="rounded=1;whiteSpace=wrap;html=1;fillColor=none;fontColor=#0066ff;strokeColor=#0066ff;strokeWidth=2;" parent="1" vertex="1">
                    <mxGeometry x="90" y="280" width="120" height="40" as="geometry"/>
                </mxCell>
                <mxCell id="17" value="VirtualImage" style="rounded=1;whiteSpace=wrap;html=1;fillColor=none;fontColor=#0066ff;strokeColor=#0066ff;strokeWidth=2;" parent="1" vertex="1">
                    <mxGeometry x="330" y="340" width="120" height="40" as="geometry"/>
                </mxCell>
            </root>
        </mxGraphModel>
    </diagram>
    <diagram id="3HleheF3-EX4s2hkzfmH" name="Page-2">
        <mxGraphModel grid="1" page="1" gridSize="10" guides="1" tooltips="1" connect="1" arrows="1" fold="1" pageScale="1" pageWidth="690" pageHeight="980" math="0" shadow="0">
            <root>
                <mxCell id="0"/>
                <mxCell id="1" parent="0"/>
            </root>
        </mxGraphModel>
    </diagram>
</mxfile>
